<svg xmlns="http://www.w3.org/2000/svg" viewBox="0 0 100 100">
  <defs>
    <linearGradient id="stripeGradient" x1="0%" y1="0%" x2="100%" y2="100%">
      <stop offset="0%" style="stop-color:#000000;stop-opacity:1" />
      <stop offset="100%" style="stop-color:#333333;stop-opacity:1" />
    </linearGradient>
  </defs>
  <!-- Main R shape -->
  <path d="M20 20 L20 80 L35 80 L35 55 L50 80 L70 80 L50 50 C60 50 70 40 70 30 C70 20 60 20 50 20 Z M35 35 L50 35 C55 35 55 45 50 45 L35 45 Z" 
        fill="url(#stripeGradient)" />
  <!-- Diagonal stripes -->
  <g stroke="white" stroke-width="2" stroke-linecap="round">
    <line x1="25" y1="25" x2="45" y2="45" />
    <line x1="35" y1="25" x2="55" y2="45" />
    <line x1="45" y1="25" x2="65" y2="45" />
    <line x1="30" y1="55" x2="50" y2="75" />
    <line x1="40" y1="55" x2="60" y2="75" />
  </g>
</svg>